<mxfile host="65bd71144e">
    <diagram id="5eixCT4aslgIog5RmQju" name="Page-1">
        <mxGraphModel dx="1448" dy="642" grid="1" gridSize="10" guides="0" tooltips="1" connect="0" arrows="0" fold="1" page="0" pageScale="1" pageWidth="827" pageHeight="1169" background="#FFFFFF" math="0" shadow="0">
            <root>
                <mxCell id="0"/>
                <mxCell id="1" parent="0"/>
                <mxCell id="qsGzzAuagtlAmWLh8xZQ-89" value="首頁" style="swimlane;fontStyle=0;childLayout=stackLayout;horizontal=1;startSize=30;horizontalStack=0;resizeParent=1;resizeParentMax=0;resizeLast=0;collapsible=1;marginBottom=0;fontSize=24;strokeColor=#030303;fontColor=#FFFFFF;" parent="1" vertex="1">
                    <mxGeometry x="40" y="40" width="200" height="90" as="geometry">
                        <mxRectangle x="40" y="240" width="80" height="30" as="alternateBounds"/>
                    </mxGeometry>
                </mxCell>
                <mxCell id="qsGzzAuagtlAmWLh8xZQ-91" value="年度熱門課程" style="text;align=left;verticalAlign=middle;spacingLeft=4;spacingRight=4;overflow=hidden;points=[[0,0.5],[1,0.5]];portConstraint=eastwest;rotatable=0;fontSize=24;strokeColor=#030303;fontColor=#000000;" parent="qsGzzAuagtlAmWLh8xZQ-89" vertex="1">
                    <mxGeometry y="30" width="200" height="30" as="geometry"/>
                </mxCell>
                <mxCell id="qsGzzAuagtlAmWLh8xZQ-119" value="當月熱門課程" style="text;align=left;verticalAlign=middle;spacingLeft=4;spacingRight=4;overflow=hidden;points=[[0,0.5],[1,0.5]];portConstraint=eastwest;rotatable=0;fontSize=24;strokeColor=#030303;fontColor=#000000;" parent="qsGzzAuagtlAmWLh8xZQ-89" vertex="1">
                    <mxGeometry y="60" width="200" height="30" as="geometry"/>
                </mxCell>
                <mxCell id="qsGzzAuagtlAmWLh8xZQ-100" value="課程管理頁面" style="swimlane;fontStyle=0;childLayout=stackLayout;horizontal=1;startSize=30;horizontalStack=0;resizeParent=1;resizeParentMax=0;resizeLast=0;collapsible=1;marginBottom=0;fontSize=24;strokeColor=#030303;fontColor=#FFFFFF;" parent="1" vertex="1">
                    <mxGeometry x="743" y="160" width="200" height="150" as="geometry">
                        <mxRectangle x="603" y="160" width="130" height="30" as="alternateBounds"/>
                    </mxGeometry>
                </mxCell>
                <mxCell id="qsGzzAuagtlAmWLh8xZQ-101" value="課程新增" style="text;align=left;verticalAlign=middle;spacingLeft=4;spacingRight=4;overflow=hidden;points=[[0,0.5],[1,0.5]];portConstraint=eastwest;rotatable=0;fontSize=24;strokeColor=#030303;fontColor=#000000;" parent="qsGzzAuagtlAmWLh8xZQ-100" vertex="1">
                    <mxGeometry y="30" width="200" height="30" as="geometry"/>
                </mxCell>
                <mxCell id="qsGzzAuagtlAmWLh8xZQ-102" value="課程修改" style="text;align=left;verticalAlign=middle;spacingLeft=4;spacingRight=4;overflow=hidden;points=[[0,0.5],[1,0.5]];portConstraint=eastwest;rotatable=0;fontSize=24;strokeColor=#030303;fontColor=#000000;" parent="qsGzzAuagtlAmWLh8xZQ-100" vertex="1">
                    <mxGeometry y="60" width="200" height="30" as="geometry"/>
                </mxCell>
                <mxCell id="8" value="課程上下架管理" style="text;align=left;verticalAlign=middle;spacingLeft=4;spacingRight=4;overflow=hidden;points=[[0,0.5],[1,0.5]];portConstraint=eastwest;rotatable=0;fontSize=24;strokeColor=#030303;fontColor=#000000;" parent="qsGzzAuagtlAmWLh8xZQ-100" vertex="1">
                    <mxGeometry y="90" width="200" height="30" as="geometry"/>
                </mxCell>
                <mxCell id="qsGzzAuagtlAmWLh8xZQ-103" value="未完成課程刪除" style="text;align=left;verticalAlign=middle;spacingLeft=4;spacingRight=4;overflow=hidden;points=[[0,0.5],[1,0.5]];portConstraint=eastwest;rotatable=0;fontSize=24;strokeColor=#030303;fontColor=#000000;" parent="qsGzzAuagtlAmWLh8xZQ-100" vertex="1">
                    <mxGeometry y="120" width="200" height="30" as="geometry"/>
                </mxCell>
                <mxCell id="qsGzzAuagtlAmWLh8xZQ-105" value="學生頁面" style="swimlane;fontStyle=0;childLayout=stackLayout;horizontal=1;startSize=30;horizontalStack=0;resizeParent=1;resizeParentMax=0;resizeLast=0;collapsible=1;marginBottom=0;fontSize=24;strokeColor=#030303;fontColor=#FCFCFC;" parent="1" vertex="1">
                    <mxGeometry x="740" width="200" height="120" as="geometry">
                        <mxRectangle x="600" y="320" width="130" height="30" as="alternateBounds"/>
                    </mxGeometry>
                </mxCell>
                <mxCell id="qsGzzAuagtlAmWLh8xZQ-106" value="顯示已購買課程" style="text;align=left;verticalAlign=middle;spacingLeft=4;spacingRight=4;overflow=hidden;points=[[0,0.5],[1,0.5]];portConstraint=eastwest;rotatable=0;fontSize=24;strokeColor=#030303;fontColor=#000000;" parent="qsGzzAuagtlAmWLh8xZQ-105" vertex="1">
                    <mxGeometry y="30" width="200" height="30" as="geometry"/>
                </mxCell>
                <mxCell id="qsGzzAuagtlAmWLh8xZQ-107" value="播放課程" style="text;align=left;verticalAlign=middle;spacingLeft=4;spacingRight=4;overflow=hidden;points=[[0,0.5],[1,0.5]];portConstraint=eastwest;rotatable=0;fontSize=24;strokeColor=#030303;fontColor=#000000;" parent="qsGzzAuagtlAmWLh8xZQ-105" vertex="1">
                    <mxGeometry y="60" width="200" height="30" as="geometry"/>
                </mxCell>
                <mxCell id="qsGzzAuagtlAmWLh8xZQ-108" value="管理課程" style="text;align=left;verticalAlign=middle;spacingLeft=4;spacingRight=4;overflow=hidden;points=[[0,0.5],[1,0.5]];portConstraint=eastwest;rotatable=0;fontSize=24;strokeColor=#030303;fontColor=#000000;" parent="qsGzzAuagtlAmWLh8xZQ-105" vertex="1">
                    <mxGeometry y="90" width="200" height="30" as="geometry"/>
                </mxCell>
                <mxCell id="qsGzzAuagtlAmWLh8xZQ-115" value="課程瀏覽" style="swimlane;fontStyle=0;childLayout=stackLayout;horizontal=1;startSize=30;horizontalStack=0;resizeParent=1;resizeParentMax=0;resizeLast=0;collapsible=1;marginBottom=0;fontSize=24;strokeColor=#030303;fontColor=#FFFFFF;" parent="1" vertex="1">
                    <mxGeometry x="280" y="320" width="200" height="90" as="geometry">
                        <mxRectangle x="400" y="680" width="130" height="30" as="alternateBounds"/>
                    </mxGeometry>
                </mxCell>
                <mxCell id="qsGzzAuagtlAmWLh8xZQ-116" value="所有課程" style="text;align=left;verticalAlign=middle;spacingLeft=4;spacingRight=4;overflow=hidden;points=[[0,0.5],[1,0.5]];portConstraint=eastwest;rotatable=0;fontSize=24;strokeColor=#030303;fontColor=#000000;" parent="qsGzzAuagtlAmWLh8xZQ-115" vertex="1">
                    <mxGeometry y="30" width="200" height="30" as="geometry"/>
                </mxCell>
                <mxCell id="7" value="分類查詢" style="text;align=left;verticalAlign=middle;spacingLeft=4;spacingRight=4;overflow=hidden;points=[[0,0.5],[1,0.5]];portConstraint=eastwest;rotatable=0;fontSize=24;strokeColor=#030303;fontColor=#000000;" parent="qsGzzAuagtlAmWLh8xZQ-115" vertex="1">
                    <mxGeometry y="60" width="200" height="30" as="geometry"/>
                </mxCell>
                <mxCell id="qsGzzAuagtlAmWLh8xZQ-120" value="註冊頁面" style="swimlane;fontStyle=0;childLayout=stackLayout;horizontal=1;startSize=30;horizontalStack=0;resizeParent=1;resizeParentMax=0;resizeLast=0;collapsible=1;marginBottom=0;fontSize=24;strokeColor=#030303;fontColor=#FFFFFF;" parent="1" vertex="1">
                    <mxGeometry x="280" y="200" width="200" height="60" as="geometry">
                        <mxRectangle x="280" y="40" width="130" height="30" as="alternateBounds"/>
                    </mxGeometry>
                </mxCell>
                <mxCell id="qsGzzAuagtlAmWLh8xZQ-123" value="註冊" style="text;align=left;verticalAlign=middle;spacingLeft=4;spacingRight=4;overflow=hidden;points=[[0,0.5],[1,0.5]];portConstraint=eastwest;rotatable=0;fontSize=24;strokeColor=#030303;fontColor=#000000;" parent="qsGzzAuagtlAmWLh8xZQ-120" vertex="1">
                    <mxGeometry y="30" width="200" height="30" as="geometry"/>
                </mxCell>
                <mxCell id="qsGzzAuagtlAmWLh8xZQ-124" value="個人資料" style="swimlane;fontStyle=0;childLayout=stackLayout;horizontal=1;startSize=30;horizontalStack=0;resizeParent=1;resizeParentMax=0;resizeLast=0;collapsible=1;marginBottom=0;fontSize=24;strokeColor=#030303;fontColor=#F7F7F7;labelBackgroundColor=none;labelBorderColor=none;" parent="1" vertex="1">
                    <mxGeometry x="740" y="360" width="200" height="60" as="geometry">
                        <mxRectangle x="40" y="240" width="80" height="30" as="alternateBounds"/>
                    </mxGeometry>
                </mxCell>
                <mxCell id="qsGzzAuagtlAmWLh8xZQ-125" value="個人資料修改" style="text;align=left;verticalAlign=middle;spacingLeft=4;spacingRight=4;overflow=hidden;points=[[0,0.5],[1,0.5]];portConstraint=eastwest;rotatable=0;fontSize=24;strokeColor=#030303;fontColor=#000000;" parent="qsGzzAuagtlAmWLh8xZQ-124" vertex="1">
                    <mxGeometry y="30" width="200" height="30" as="geometry"/>
                </mxCell>
                <mxCell id="qsGzzAuagtlAmWLh8xZQ-130" value="後台" style="swimlane;fontStyle=0;childLayout=stackLayout;horizontal=1;startSize=30;horizontalStack=0;resizeParent=1;resizeParentMax=0;resizeLast=0;collapsible=1;marginBottom=0;fontSize=24;strokeColor=#030303;fontColor=#FFFFFF;" parent="1" vertex="1">
                    <mxGeometry x="280" y="40" width="400" height="90" as="geometry">
                        <mxRectangle x="40" y="240" width="80" height="30" as="alternateBounds"/>
                    </mxGeometry>
                </mxCell>
                <mxCell id="qsGzzAuagtlAmWLh8xZQ-132" value="課程管理" style="text;align=left;verticalAlign=middle;spacingLeft=4;spacingRight=4;overflow=hidden;points=[[0,0.5],[1,0.5]];portConstraint=eastwest;rotatable=0;fontSize=24;strokeColor=#030303;fontColor=#000000;" parent="qsGzzAuagtlAmWLh8xZQ-130" vertex="1">
                    <mxGeometry y="30" width="400" height="30" as="geometry"/>
                </mxCell>
                <mxCell id="qsGzzAuagtlAmWLh8xZQ-131" value="個人資料" style="text;align=left;verticalAlign=middle;spacingLeft=4;spacingRight=4;overflow=hidden;points=[[0,0.5],[1,0.5]];portConstraint=eastwest;rotatable=0;fontSize=24;strokeColor=#030303;fontColor=#000000;" parent="qsGzzAuagtlAmWLh8xZQ-130" vertex="1">
                    <mxGeometry y="60" width="400" height="30" as="geometry"/>
                </mxCell>
                <mxCell id="qsGzzAuagtlAmWLh8xZQ-139" style="edgeStyle=orthogonalEdgeStyle;orthogonalLoop=1;jettySize=auto;html=1;entryX=0;entryY=0.5;entryDx=0;entryDy=0;fontSize=24;labelBackgroundColor=#EEEEEE;fontColor=#000000;strokeColor=#030303;" parent="1" source="qsGzzAuagtlAmWLh8xZQ-131" target="qsGzzAuagtlAmWLh8xZQ-125" edge="1">
                    <mxGeometry relative="1" as="geometry">
                        <Array as="points">
                            <mxPoint x="700" y="115"/>
                            <mxPoint x="700" y="405"/>
                        </Array>
                    </mxGeometry>
                </mxCell>
                <mxCell id="qsGzzAuagtlAmWLh8xZQ-140" style="edgeStyle=orthogonalEdgeStyle;orthogonalLoop=1;jettySize=auto;html=1;entryX=0;entryY=0.5;entryDx=0;entryDy=0;fontSize=24;labelBackgroundColor=#EEEEEE;fontColor=#000000;strokeColor=#030303;" parent="1" source="qsGzzAuagtlAmWLh8xZQ-132" target="qsGzzAuagtlAmWLh8xZQ-107" edge="1">
                    <mxGeometry relative="1" as="geometry">
                        <Array as="points">
                            <mxPoint x="720" y="85"/>
                            <mxPoint x="720" y="75"/>
                        </Array>
                    </mxGeometry>
                </mxCell>
                <mxCell id="qsGzzAuagtlAmWLh8xZQ-141" style="edgeStyle=orthogonalEdgeStyle;orthogonalLoop=1;jettySize=auto;html=1;entryX=-0.01;entryY=0.733;entryDx=0;entryDy=0;entryPerimeter=0;fontSize=24;labelBackgroundColor=#EEEEEE;fontColor=#000000;strokeColor=#030303;" parent="1" source="qsGzzAuagtlAmWLh8xZQ-132" target="qsGzzAuagtlAmWLh8xZQ-102" edge="1">
                    <mxGeometry relative="1" as="geometry">
                        <Array as="points">
                            <mxPoint x="720" y="85"/>
                            <mxPoint x="720" y="242"/>
                        </Array>
                    </mxGeometry>
                </mxCell>
                <mxCell id="qsGzzAuagtlAmWLh8xZQ-148" value="單一課程的頁面" style="swimlane;fontStyle=0;childLayout=stackLayout;horizontal=1;startSize=30;horizontalStack=0;resizeParent=1;resizeParentMax=0;resizeLast=0;collapsible=1;marginBottom=0;fontSize=24;strokeColor=#030303;fontColor=#FFFFFF;" parent="1" vertex="1">
                    <mxGeometry x="740" y="480" width="200" height="120" as="geometry">
                        <mxRectangle x="400" y="680" width="130" height="30" as="alternateBounds"/>
                    </mxGeometry>
                </mxCell>
                <mxCell id="qsGzzAuagtlAmWLh8xZQ-149" value="顯示課程資訊" style="text;align=left;verticalAlign=middle;spacingLeft=4;spacingRight=4;overflow=hidden;points=[[0,0.5],[1,0.5]];portConstraint=eastwest;rotatable=0;fontSize=24;strokeColor=#030303;fontColor=#000000;" parent="qsGzzAuagtlAmWLh8xZQ-148" vertex="1">
                    <mxGeometry y="30" width="200" height="30" as="geometry"/>
                </mxCell>
                <mxCell id="qsGzzAuagtlAmWLh8xZQ-150" value="課程討論(留言板）" style="text;align=left;verticalAlign=middle;spacingLeft=4;spacingRight=4;overflow=hidden;points=[[0,0.5],[1,0.5]];portConstraint=eastwest;rotatable=0;fontSize=24;strokeColor=#030303;fontColor=#000000;" parent="qsGzzAuagtlAmWLh8xZQ-148" vertex="1">
                    <mxGeometry y="60" width="200" height="30" as="geometry"/>
                </mxCell>
                <mxCell id="qsGzzAuagtlAmWLh8xZQ-151" value="加入購物車" style="text;align=left;verticalAlign=middle;spacingLeft=4;spacingRight=4;overflow=hidden;points=[[0,0.5],[1,0.5]];portConstraint=eastwest;rotatable=0;fontSize=24;strokeColor=#030303;fontColor=#000000;" parent="qsGzzAuagtlAmWLh8xZQ-148" vertex="1">
                    <mxGeometry y="90" width="200" height="30" as="geometry"/>
                </mxCell>
                <mxCell id="qsGzzAuagtlAmWLh8xZQ-152" style="edgeStyle=orthogonalEdgeStyle;orthogonalLoop=1;jettySize=auto;html=1;entryX=0;entryY=0.5;entryDx=0;entryDy=0;fontSize=24;labelBackgroundColor=#EEEEEE;fontColor=#000000;strokeColor=#030303;" parent="1" source="qsGzzAuagtlAmWLh8xZQ-116" target="qsGzzAuagtlAmWLh8xZQ-150" edge="1">
                    <mxGeometry relative="1" as="geometry">
                        <Array as="points">
                            <mxPoint x="500" y="365"/>
                            <mxPoint x="500" y="555"/>
                        </Array>
                    </mxGeometry>
                </mxCell>
                <mxCell id="qsGzzAuagtlAmWLh8xZQ-153" value="留言板" style="swimlane;fontStyle=0;childLayout=stackLayout;horizontal=1;startSize=30;horizontalStack=0;resizeParent=1;resizeParentMax=0;resizeLast=0;collapsible=1;marginBottom=0;fontSize=24;strokeColor=#030303;fontColor=#FFFFFF;" parent="1" vertex="1">
                    <mxGeometry x="1020" y="480" width="200" height="90" as="geometry">
                        <mxRectangle x="400" y="680" width="130" height="30" as="alternateBounds"/>
                    </mxGeometry>
                </mxCell>
                <mxCell id="qsGzzAuagtlAmWLh8xZQ-156" value="使用者留言" style="text;align=left;verticalAlign=middle;spacingLeft=4;spacingRight=4;overflow=hidden;points=[[0,0.5],[1,0.5]];portConstraint=eastwest;rotatable=0;fontSize=24;strokeColor=#030303;fontColor=#000000;" parent="qsGzzAuagtlAmWLh8xZQ-153" vertex="1">
                    <mxGeometry y="30" width="200" height="30" as="geometry"/>
                </mxCell>
                <mxCell id="qsGzzAuagtlAmWLh8xZQ-155" value="回覆留言" style="text;align=left;verticalAlign=middle;spacingLeft=4;spacingRight=4;overflow=hidden;points=[[0,0.5],[1,0.5]];portConstraint=eastwest;rotatable=0;fontSize=24;strokeColor=#030303;fontColor=#000000;" parent="qsGzzAuagtlAmWLh8xZQ-153" vertex="1">
                    <mxGeometry y="60" width="200" height="30" as="geometry"/>
                </mxCell>
                <mxCell id="qsGzzAuagtlAmWLh8xZQ-159" style="edgeStyle=orthogonalEdgeStyle;orthogonalLoop=1;jettySize=auto;html=1;fontSize=24;exitX=1;exitY=0.5;exitDx=0;exitDy=0;entryX=0;entryY=0.5;entryDx=0;entryDy=0;labelBackgroundColor=#EEEEEE;fontColor=#000000;strokeColor=#030303;" parent="1" source="qsGzzAuagtlAmWLh8xZQ-149" target="qsGzzAuagtlAmWLh8xZQ-156" edge="1">
                    <mxGeometry relative="1" as="geometry">
                        <mxPoint x="1000" y="600" as="targetPoint"/>
                    </mxGeometry>
                </mxCell>
                <mxCell id="2" style="edgeStyle=none;html=1;exitX=1;exitY=0.5;exitDx=0;exitDy=0;entryX=0;entryY=0.5;entryDx=0;entryDy=0;fontSize=24;labelBackgroundColor=#EEEEEE;fontColor=#000000;strokeColor=#030303;entryPerimeter=0;" parent="1" source="qsGzzAuagtlAmWLh8xZQ-91" target="qsGzzAuagtlAmWLh8xZQ-132" edge="1">
                    <mxGeometry relative="1" as="geometry"/>
                </mxCell>
                <mxCell id="4" style="edgeStyle=none;html=1;entryX=-0.005;entryY=0.3;entryDx=0;entryDy=0;entryPerimeter=0;fontSize=24;labelBackgroundColor=#EEEEEE;fontColor=#000000;strokeColor=#030303;" parent="1" target="qsGzzAuagtlAmWLh8xZQ-123" edge="1">
                    <mxGeometry relative="1" as="geometry">
                        <Array as="points">
                            <mxPoint x="260" y="115"/>
                            <mxPoint x="260" y="239"/>
                        </Array>
                        <mxPoint x="240" y="110" as="sourcePoint"/>
                    </mxGeometry>
                </mxCell>
                <mxCell id="10" value="文章分享" style="swimlane;fontStyle=0;childLayout=stackLayout;horizontal=1;startSize=30;horizontalStack=0;resizeParent=1;resizeParentMax=0;resizeLast=0;collapsible=1;marginBottom=0;fontSize=24;strokeColor=#030303;fontColor=#FFFFFF;" vertex="1" parent="1">
                    <mxGeometry x="280" y="480" width="200" height="120" as="geometry">
                        <mxRectangle x="40" y="240" width="80" height="30" as="alternateBounds"/>
                    </mxGeometry>
                </mxCell>
                <mxCell id="12" value="觀看文章" style="text;align=left;verticalAlign=middle;spacingLeft=4;spacingRight=4;overflow=hidden;points=[[0,0.5],[1,0.5]];portConstraint=eastwest;rotatable=0;fontSize=24;strokeColor=#030303;fontColor=#000000;" vertex="1" parent="10">
                    <mxGeometry y="30" width="200" height="30" as="geometry"/>
                </mxCell>
                <mxCell id="13" value="新增/刪除文章" style="text;align=left;verticalAlign=middle;spacingLeft=4;spacingRight=4;overflow=hidden;points=[[0,0.5],[1,0.5]];portConstraint=eastwest;rotatable=0;fontSize=24;strokeColor=#030303;fontColor=#000000;" vertex="1" parent="10">
                    <mxGeometry y="60" width="200" height="30" as="geometry"/>
                </mxCell>
                <mxCell id="19" value="分類查詢" style="text;align=left;verticalAlign=middle;spacingLeft=4;spacingRight=4;overflow=hidden;points=[[0,0.5],[1,0.5]];portConstraint=eastwest;rotatable=0;fontSize=24;strokeColor=#030303;fontColor=#000000;" vertex="1" parent="10">
                    <mxGeometry y="90" width="200" height="30" as="geometry"/>
                </mxCell>
                <mxCell id="21" style="edgeStyle=none;html=1;entryX=0;entryY=0.5;entryDx=0;entryDy=0;fontSize=24;labelBackgroundColor=#EEEEEE;fontColor=#000000;strokeColor=#030303;" edge="1" parent="1">
                    <mxGeometry relative="1" as="geometry">
                        <Array as="points">
                            <mxPoint x="260" y="273"/>
                            <mxPoint x="260" y="553"/>
                        </Array>
                        <mxPoint x="260" y="220" as="sourcePoint"/>
                        <mxPoint x="280" y="553" as="targetPoint"/>
                    </mxGeometry>
                </mxCell>
                <mxCell id="22" value="統計分析" style="swimlane;fontStyle=0;childLayout=stackLayout;horizontal=1;startSize=30;horizontalStack=0;resizeParent=1;resizeParentMax=0;resizeLast=0;collapsible=1;marginBottom=0;fontSize=24;strokeColor=#030303;fontColor=#FFFFFF;" vertex="1" parent="1">
                    <mxGeometry x="740" y="640" width="200" height="60" as="geometry">
                        <mxRectangle x="280" y="40" width="130" height="30" as="alternateBounds"/>
                    </mxGeometry>
                </mxCell>
                <mxCell id="23" value="產出報表" style="text;align=left;verticalAlign=middle;spacingLeft=4;spacingRight=4;overflow=hidden;points=[[0,0.5],[1,0.5]];portConstraint=eastwest;rotatable=0;fontSize=24;strokeColor=#030303;fontColor=#000000;" vertex="1" parent="22">
                    <mxGeometry y="30" width="200" height="30" as="geometry"/>
                </mxCell>
                <mxCell id="24" style="edgeStyle=orthogonalEdgeStyle;orthogonalLoop=1;jettySize=auto;html=1;entryX=0;entryY=0.5;entryDx=0;entryDy=0;fontSize=24;labelBackgroundColor=#EEEEEE;fontColor=#000000;strokeColor=#030303;" edge="1" parent="1">
                    <mxGeometry relative="1" as="geometry">
                        <Array as="points">
                            <mxPoint x="700" y="390"/>
                            <mxPoint x="700" y="680"/>
                        </Array>
                        <mxPoint x="700" y="380" as="sourcePoint"/>
                        <mxPoint x="740" y="680" as="targetPoint"/>
                    </mxGeometry>
                </mxCell>
            </root>
        </mxGraphModel>
    </diagram>
</mxfile>